<?xml version="1.0" encoding="utf-8"?>
<!-- Generator: Adobe Illustrator 17.1.0, SVG Export Plug-In . SVG Version: 6.00 Build 0)  -->
<!DOCTYPE svg PUBLIC "-//W3C//DTD SVG 1.1//EN" "http://www.w3.org/Graphics/SVG/1.1/DTD/svg11.dtd">
<svg version="1.1" id="Layer_1" xmlns="http://www.w3.org/2000/svg" xmlns:xlink="http://www.w3.org/1999/xlink" x="0px" y="0px"
	 viewBox="0 0 21 20" enable-background="new 0 0 21 20" xml:space="preserve">
<g id="path4342" sodipodi:nodetypes="ccccccccc" inkscape:connector-curvature="0" inkscape:export-filename="/Users/nickidlugash/work_repos/tm2-custom-styles/wsj-satellite.tm2/img/shield/us_highway_2_lt.png" inkscape:export-xdpi="90" inkscape:export-ydpi="90">
	<path opacity="0.2" d="M10.5,19.3c-1.7-1.5-3.3-1.5-4.7-1.5c-1.4,0-2.6,0-3.8-1.5c-2.1-2.5-1.5-4.5-1-6.6C1.5,8,2,6.2,0.8,4.2
		l2.8-3.4c1,1.1,2.2,1.6,3.4,1.6c1.2,0,2.4-0.6,3.4-1.6c1,1.1,2.2,1.6,3.4,1.6c1.2,0,2.4-0.6,3.4-1.6l2.8,3.4C19,6.2,19.5,8,20,9.7
		c0.6,2.1,1.1,4.1-1,6.6c-1.2,1.5-2.4,1.5-3.8,1.5C13.8,17.8,12.2,17.8,10.5,19.3z"/>
	<path fill="#FFFFFF" d="M10.5,1.4c1,0.9,2.2,1.4,3.4,1.4c1.2,0,2.3-0.5,3.4-1.4l2.3,2.8c-1,2-0.5,3.9-0.1,5.6
		c0.6,2.1,1,3.9-0.9,6.2c-1.1,1.3-2.1,1.3-3.4,1.3c-1.3,0-3,0-4.7,1.3c-1.7-1.3-3.4-1.3-4.7-1.3c-1.4,0-2.4,0-3.4-1.3
		c-1.9-2.3-1.4-4.1-0.9-6.2c0.5-1.7,1-3.6-0.1-5.6l2.3-2.8c1,0.9,2.2,1.4,3.4,1.4C8.3,2.9,9.5,2.4,10.5,1.4 M17.4,0
		c-1,1.3-2.2,1.9-3.4,1.9S11.5,1.3,10.5,0c-1,1.3-2.2,1.9-3.4,1.9S4.7,1.3,3.6,0L0.2,4.2C3,8.3-2.5,11.7,1.6,16.7
		c2.7,3.3,5.5,0,8.9,3.3c3.4-3.3,6.2,0,8.9-3.3c4.1-5-1.4-8.3,1.4-12.5L17.4,0L17.4,0z"/>
</g>
</svg>
