<?xml version="1.0" encoding="utf-8"?>
<!DOCTYPE svg PUBLIC "-//W3C//DTD SVG 1.1//EN" "http://www.w3.org/Graphics/SVG/1.1/DTD/svg11.dtd">
<svg version="1.1" id="Layer_1" xmlns="http://www.w3.org/2000/svg" xmlns:xlink="http://www.w3.org/1999/xlink" x="0px" y="0px"
	 xml:space="preserve">
<g>
	<path opacity="0.2" d="M12.5,19.4c-2.1-1.5-3.9-1.5-5.6-1.5c-1.7,0-3.2,0-4.6-1.5c-2.4-2.5-1.8-4.5-1.1-6.6C1.7,8,2.2,6.2,0.9,4.2
		l3.4-3.5C5.6,1.8,7,2.4,8.4,2.4c1.5,0,2.9-0.6,4.1-1.7c1.2,1.1,2.6,1.7,4.1,1.7c1.5,0,2.9-0.6,4.1-1.7l3.4,3.5
		c-1.3,2-0.7,3.8-0.2,5.5c0.7,2.1,1.3,4.1-1.1,6.6c-1.5,1.5-2.9,1.5-4.6,1.5C16.4,17.8,14.6,17.8,12.5,19.4z"/>
	<path fill="#FFFFFF" d="M12.5,1.4c1.2,1,2.6,1.5,4.1,1.5c1.4,0,2.8-0.5,4-1.5l2.8,2.9c-1.2,2-0.6,3.9,0,5.6c0.7,2.1,1.2,3.8-1,6.1
		c-1.3,1.4-2.6,1.4-4.3,1.4c-1.7,0-3.5,0-5.6,1.4c-2.1-1.4-3.9-1.4-5.6-1.4c-1.6,0-2.9,0-4.3-1.4c-2.2-2.3-1.7-4-1-6.1
		c0.5-1.7,1.1-3.6,0-5.6l2.8-2.9c1.2,1,2.6,1.5,4,1.5C9.9,2.9,11.3,2.4,12.5,1.4 M20.7,0c-1.2,1.2-2.7,1.9-4.1,1.9S13.7,1.2,12.5,0
		c-1.2,1.2-2.7,1.9-4.1,1.9S5.6,1.2,4.3,0L0.3,4.2C3.5,8.3-3,11.7,1.9,16.7c3.3,3.3,6.5,0,10.6,3.3c4.1-3.3,7.3,0,10.6-3.3
		c4.9-5-1.6-8.3,1.6-12.5L20.7,0L20.7,0z"/>
</g>
</svg>
