<?xml version="1.0" encoding="utf-8"?>
<!-- Generator: Adobe Illustrator 17.1.0, SVG Export Plug-In . SVG Version: 6.00 Build 0)  -->
<!DOCTYPE svg PUBLIC "-//W3C//DTD SVG 1.1//EN" "http://www.w3.org/Graphics/SVG/1.1/DTD/svg11.dtd">
<svg version="1.1" id="Layer_1" xmlns="http://www.w3.org/2000/svg" xmlns:xlink="http://www.w3.org/1999/xlink" x="0px" y="0px"
	 viewBox="0 0 22 20" enable-background="new 0 0 22 20" xml:space="preserve">
<g id="path4381" sodipodi:nodetypes="ccccc" inkscape:connector-curvature="0" inkscape:export-filename="/Users/nickidlugash/work_repos/tm2-custom-styles/wsj-satellite.tm2/img/shield/us_interstate_2_lt.png" inkscape:export-xdpi="90" inkscape:export-ydpi="90">
	<path opacity="0.2" d="M11,19.5c-2.7-0.6-7.6-2.8-9.6-7.2C-0.1,9.1,0.3,5.1,2.5,0.7c1,0.5,2.5,1.1,4.4,1.1c1.5,0,2.9-0.4,4.1-1.2
		c1.2,0.8,2.6,1.2,4.1,1.2c1.8,0,3.4-0.6,4.4-1.1c2.3,4.5,2.6,8.4,1.1,11.6C18.6,16.7,13.7,18.9,11,19.5z"/>
	<path fill="#FFFFFF" d="M11,1.2c1.3,0.7,2.6,1.1,4.1,1.1c1.7,0,3.1-0.5,4.1-1c2,4.1,2.3,7.7,0.9,10.7c-1.9,4.1-6.5,6.2-9.1,6.9
		c-2.6-0.6-7.2-2.7-9.1-6.9c-1.4-3-1.1-6.6,0.9-10.7c1,0.5,2.5,1,4.1,1C8.4,2.3,9.7,1.9,11,1.2 M19.7,0c-1.2,0.7-2.8,1.3-4.6,1.3
		C13.8,1.3,12.3,1,11,0C9.7,1,8.2,1.3,6.9,1.3C5.2,1.3,3.5,0.7,2.3,0C-5,13.9,7.1,19.1,11,20C14.9,19.1,27,13.9,19.7,0L19.7,0z"/>
</g>
</svg>
