<?xml version="1.0" encoding="utf-8"?>
<!DOCTYPE svg PUBLIC "-//W3C//DTD SVG 1.1//EN" "http://www.w3.org/Graphics/SVG/1.1/DTD/svg11.dtd">
<svg version="1.1" id="Layer_1" xmlns="http://www.w3.org/2000/svg" xmlns:xlink="http://www.w3.org/1999/xlink" x="0px" y="0px"
	 xml:space="preserve">
<g>
	<path opacity="0.2" d="M13.5,19.5c-4.1-0.6-9.7-2.8-12-7.1c-1.6-3.2-1.3-7.1,1-11.7c1.4,0.7,3.7,1.1,5.8,1.1c1.5,0,3.6-0.2,5.2-1.2
		c1.6,1,3.7,1.2,5.2,1.2c2.1,0,4.4-0.4,5.8-1.1c2.3,4.5,2.6,8.5,1,11.7C23.2,16.7,17.6,18.9,13.5,19.5z"/>
	<path fill="#FFFFFF" d="M13.5,1.2c1.7,0.9,3.7,1.1,5.2,1.1c2,0,4.1-0.4,5.6-1c2,4.2,2.3,7.8,0.8,10.8c-2.2,4.2-7.5,6.3-11.5,6.9
		c-4-0.6-9.4-2.7-11.5-6.9C0.5,9.2,0.7,5.5,2.7,1.3c1.5,0.6,3.6,1,5.6,1C9.8,2.3,11.8,2.1,13.5,1.2 M24.7,0
		c-1.2,0.7-3.6,1.3-6.1,1.3c-1.9,0-3.8-0.4-5.2-1.3c-1.3,1-3.2,1.3-5.2,1.3C5.9,1.3,3.5,0.7,2.3,0C-5,13.9,7,19.1,13.5,20
		C20,19.1,32,13.9,24.7,0L24.7,0z"/>
</g>
</svg>
