<?xml version="1.0" encoding="utf-8"?>
<!-- Generator: Adobe Illustrator 17.1.0, SVG Export Plug-In . SVG Version: 6.00 Build 0)  -->
<!DOCTYPE svg PUBLIC "-//W3C//DTD SVG 1.1//EN" "http://www.w3.org/Graphics/SVG/1.1/DTD/svg11.dtd">
<svg version="1.1" id="Layer_1" xmlns="http://www.w3.org/2000/svg" xmlns:xlink="http://www.w3.org/1999/xlink" x="0px" y="0px"
	 viewBox="0 0 27 17" enable-background="new 0 0 27 17" xml:space="preserve">
<g id="rect4504" inkscape:export-filename="/Users/nickidlugash/work_repos/tm2-custom-styles/wsj-satellite.tm2/img/shield/us_state_3_lt.png" inkscape:export-xdpi="90" inkscape:export-ydpi="90">
	<path opacity="0.2" d="M13.5,16.5c-7.2,0-13-3.6-13-8s5.8-8,13-8c7.2,0,13,3.6,13,8S20.7,16.5,13.5,16.5z"/>
	<path fill="#FFFFFF" d="M13.5,1C20.3,1,26,4.4,26,8.5c0,4.1-5.7,7.5-12.5,7.5C6.7,16,1,12.6,1,8.5C1,4.4,6.7,1,13.5,1 M13.5,0
		L13.5,0C6,0,0,3.8,0,8.5C0,13.2,6,17,13.5,17h0C21,17,27,13.2,27,8.5C27,3.8,21,0,13.5,0L13.5,0z M27,8.5C27,8.5,27,8.5,27,8.5
		L27,8.5L27,8.5z M0,8.5L0,8.5C0,8.5,0,8.5,0,8.5L0,8.5z"/>
</g>
</svg>
