<?xml version="1.0" encoding="utf-8"?>
<!DOCTYPE svg PUBLIC "-//W3C//DTD SVG 1.1//EN" "http://www.w3.org/Graphics/SVG/1.1/DTD/svg11.dtd">
<svg version="1.1" id="Layer_1" xmlns="http://www.w3.org/2000/svg" xmlns:xlink="http://www.w3.org/1999/xlink" x="0px" y="0px"
	 xml:space="preserve">
<g>
	<path opacity="0.2" d="M11.5,16.5c-6.1,0-11-3.6-11-8s4.9-8,11-8s11,3.6,11,8S17.6,16.5,11.5,16.5z"/>
	<path fill="#FFFFFF" d="M11.5,1C17.3,1,22,4.4,22,8.5S17.3,16,11.5,16C5.7,16,1,12.6,1,8.5S5.7,1,11.5,1 M11.5,0L11.5,0
		C5.1,0,0,3.8,0,8.5S5.1,17,11.5,17h0C17.9,17,23,13.2,23,8.5S17.9,0,11.5,0L11.5,0z"/>
</g>
</svg>
