<?xml version="1.0" encoding="UTF-8" standalone="no"?>
<!-- Created with Inkscape (http://www.inkscape.org/) -->

<svg
   xmlns:dc="http://purl.org/dc/elements/1.1/"
   xmlns:cc="http://creativecommons.org/ns#"
   xmlns:rdf="http://www.w3.org/1999/02/22-rdf-syntax-ns#"
   xmlns:svg="http://www.w3.org/2000/svg"
   xmlns="http://www.w3.org/2000/svg"
   xmlns:sodipodi="http://sodipodi.sourceforge.net/DTD/sodipodi-0.dtd"
   xmlns:inkscape="http://www.inkscape.org/namespaces/inkscape"
   width="12"
   height="12"
   id="svg4764"
   version="1.1"
   inkscape:version="0.48.2 r9819"
   sodipodi:docname="rail-12.svg">
  <defs
     id="defs4766" />
  <sodipodi:namedview
     id="base"
     pagecolor="#ffffff"
     bordercolor="#666666"
     borderopacity="1.0"
     inkscape:pageopacity="0.0"
     inkscape:pageshadow="2"
     inkscape:zoom="16"
     inkscape:cx="4.8333333"
     inkscape:cy="4.688929"
     inkscape:document-units="px"
     inkscape:current-layer="layer1"
     showgrid="false"
     showguides="false"
     inkscape:guide-bbox="true"
     inkscape:window-width="721"
     inkscape:window-height="712"
     inkscape:window-x="744"
     inkscape:window-y="36"
     inkscape:window-maximized="0"
     inkscape:snap-bbox="true">
    <inkscape:grid
       type="xygrid"
       id="grid4772"
       empspacing="2"
       visible="true"
       enabled="true"
       snapvisiblegridlinesonly="true"
       color="#ff00ff"
       opacity="0.1254902"
       empcolor="#ff00ff"
       empopacity="0.25098039" />
    <sodipodi:guide
       orientation="0,1"
       position="2,12"
       id="guide4789" />
    <sodipodi:guide
       orientation="1,0"
       position="12,10"
       id="guide4791" />
    <sodipodi:guide
       orientation="0,1"
       position="10,0"
       id="guide4793" />
    <sodipodi:guide
       orientation="1,0"
       position="0,9"
       id="guide4795" />
    <sodipodi:guide
       orientation="0,1"
       position="5,11"
       id="guide4797" />
    <sodipodi:guide
       orientation="1,0"
       position="11,7"
       id="guide4799" />
    <sodipodi:guide
       orientation="0,1"
       position="9,2"
       id="guide4801" />
    <sodipodi:guide
       orientation="1,0"
       position="2,5"
       id="guide4803" />
  </sodipodi:namedview>
  <metadata
     id="metadata4769">
    <rdf:RDF>
      <cc:Work
         rdf:about="">
        <dc:format>image/svg+xml</dc:format>
        <dc:type
           rdf:resource="http://purl.org/dc/dcmitype/StillImage" />
        <dc:title />
      </cc:Work>
    </rdf:RDF>
  </metadata>
  <g
     inkscape:label="Layer 1"
     inkscape:groupmode="layer"
     id="layer1"
     transform="translate(0,-1040.3622)">
    <path
       style="fill:#000000;fill-opacity:1;stroke:#000000;stroke-width:2;stroke-linecap:round;stroke-linejoin:round;stroke-miterlimit:4;stroke-dasharray:none;stroke-opacity:1;opacity:0.5"
       d="M 6,1 C 4,1 3,2 3,3 L 3,7.75 3.25,8 9.75,8 10,7.75 10,3 C 10,2 9,1 7,1 z M 5,2 8,2 8,2.5 5,2.5 z M 4.25,3.5 8.75,3.5 9,3.75 9,4.75 8.75,5 4.25,5 4,4.75 4,3.75 z M 4,8.5 3,9 l 0,1 1.5,0 1,-1 0,-0.5 z m 3.5,0 0,0.5 1,1 1.5,0 0,-1 -1,-0.5 z"
       transform="translate(0,1040.3622)"
       id="path6616"
       inkscape:connector-curvature="0"
       sodipodi:nodetypes="ssccccssscccccccccccccccccccccccccccc" />
    <path
       style="fill:#ffffff;fill-opacity:1;stroke:none"
       d="M 6,1 C 4,1 3,2 3,3 L 3,7.75 3.25,8 9.75,8 10,7.75 10,3 C 10,2 9,1 7,1 z M 5,2 8,2 8,2.5 5,2.5 z M 4,3.75 4.25,3.5 8.75,3.5 9,3.75 9,4.75 8.75,5 4.25,5 4,4.75 z"
       transform="translate(0,1040.3622)"
       id="path3212"
       inkscape:connector-curvature="0"
       sodipodi:nodetypes="ccccccccccccccccccccccc" />
    <path
       style="fill:#ffffff;fill-opacity:1;stroke:none"
       d="m 4,1048.8622 -1,0.5 0,1 1.5,0 1,-1 0,-0.5 z"
       id="path3266"
       inkscape:connector-curvature="0"
       sodipodi:nodetypes="ccccccc" />
    <path
       sodipodi:nodetypes="ccccccc"
       inkscape:connector-curvature="0"
       id="path3268"
       d="m 9,1048.8622 -1.5,0 0,0.5 1,1 1.5,0 0,-1 z"
       style="fill:#ffffff;fill-opacity:1;stroke:none" />
    <rect
       style="color:#000000;fill:#ffffff;fill-opacity:0;fill-rule:nonzero;stroke:none;stroke-width:1;marker:none;visibility:visible;display:inline;overflow:visible;enable-background:accumulate"
       id="rect7366"
       width="12"
       height="12"
       x="0"
       y="0"
       transform="translate(0,1040.3622)" />
    <path
       sodipodi:type="arc"
       style="color:#000000;fill:#000000;fill-opacity:1;fill-rule:nonzero;stroke:none;stroke-width:1;marker:none;visibility:visible;display:inline;overflow:visible;enable-background:accumulate;opacity:0.75"
       id="path3182"
       sodipodi:cx="4.5"
       sodipodi:cy="6.5"
       sodipodi:rx="0.5"
       sodipodi:ry="0.5"
       d="M 5,6.5 C 5,6.7761424 4.7761424,7 4.5,7 4.2238576,7 4,6.7761424 4,6.5 4,6.2238576 4.2238576,6 4.5,6 4.7761424,6 5,6.2238576 5,6.5 z"
       transform="matrix(1.2499746,0,0,1.2499746,-0.99987285,1038.6124)" />
    <path
       transform="matrix(1.2499746,0,0,1.2499746,2.750127,1038.6124)"
       d="M 5,6.5 C 5,6.7761424 4.7761424,7 4.5,7 4.2238576,7 4,6.7761424 4,6.5 4,6.2238576 4.2238576,6 4.5,6 4.7761424,6 5,6.2238576 5,6.5 z"
       sodipodi:ry="0.5"
       sodipodi:rx="0.5"
       sodipodi:cy="6.5"
       sodipodi:cx="4.5"
       id="path3184"
       style="color:#000000;fill:#000000;fill-opacity:1;fill-rule:nonzero;stroke:none;stroke-width:1;marker:none;visibility:visible;display:inline;overflow:visible;enable-background:accumulate;opacity:0.75"
       sodipodi:type="arc" />
  </g>
</svg>
