<?xml version="1.0" encoding="UTF-8" standalone="no"?>
<!-- Created with Inkscape (http://www.inkscape.org/) -->

<svg
   xmlns:dc="http://purl.org/dc/elements/1.1/"
   xmlns:cc="http://creativecommons.org/ns#"
   xmlns:rdf="http://www.w3.org/1999/02/22-rdf-syntax-ns#"
   xmlns:svg="http://www.w3.org/2000/svg"
   xmlns="http://www.w3.org/2000/svg"
   xmlns:sodipodi="http://sodipodi.sourceforge.net/DTD/sodipodi-0.dtd"
   xmlns:inkscape="http://www.inkscape.org/namespaces/inkscape"
   version="1.1"
   width="12"
   height="12"
   id="svg4764"
   inkscape:version="0.91 r"
   sodipodi:docname="rocket-12.svg">
  <sodipodi:namedview
     pagecolor="#ffffff"
     bordercolor="#666666"
     borderopacity="1"
     objecttolerance="10"
     gridtolerance="10"
     guidetolerance="10"
     inkscape:pageopacity="0"
     inkscape:pageshadow="2"
     inkscape:window-width="651"
     inkscape:window-height="480"
     id="namedview9"
     showgrid="false"
     inkscape:zoom="19.666667"
     inkscape:cx="6"
     inkscape:cy="6"
     inkscape:window-x="10"
     inkscape:window-y="34"
     inkscape:window-maximized="0"
     inkscape:current-layer="svg4764" />
  <defs
     id="defs4766" />
  <metadata
     id="metadata4769">
    <rdf:RDF>
      <cc:Work
         rdf:about="">
        <dc:format>image/svg+xml</dc:format>
        <dc:type
           rdf:resource="http://purl.org/dc/dcmitype/StillImage" />
        <dc:title />
      </cc:Work>
    </rdf:RDF>
  </metadata>
  <g
     transform="translate(0,-1040.3622)"
     id="layer1">
    <path
       d="m 11,1042.3622 -1,0 c -2.0906146,0.2445 -6,3.1998 -6,6 l 1,1 c 2.5527118,0 5.511449,-3.9042 6,-6 z m -3,2 1,0 0,1 -1,0 z m -5,1 -1,2 c 0.5,0 1,0 1.5,0 l 1.25,-2 z m 5,3.25 -2,1.25 0,1.5 2,-1 z"
       inkscape:connector-curvature="0"
       id="path3651"
       style="opacity:1;color:#000000;fill:none;stroke:#000000;stroke-width:2;stroke-linecap:round;stroke-linejoin:round;stroke-miterlimit:4;stroke-opacity:1;stroke-dasharray:none;stroke-dashoffset:0;marker:none;visibility:visible;display:inline;overflow:visible;enable-background:accumulate" />
    <path
       d="m 11,1042.3622 -1,0 c -2.0906146,0.2445 -6,3.1998 -6,6 l 1,1 c 2.5527118,0 5.511449,-3.9042 6,-6 z m -3,2 1,0 0,1 -1,0 z m -5,1 -1,2 c 0.5,0 1,0 1.5,0 l 1.25,-2 z m 5,3.25 -2,1.25 0,1.5 2,-1 z"
       inkscape:connector-curvature="0"
       id="path3088"
       style="fill:#ffffff;fill-opacity:1;stroke:none" />
  </g>
  <rect
     width="12"
     height="12"
     x="0"
     y="0"
     id="canvas"
     style="fill:none;stroke:none;visibility:hidden" />
</svg>
