<?xml version="1.0" encoding="UTF-8" standalone="no"?>
<!-- Created with Inkscape (http://www.inkscape.org/) -->

<svg
   xmlns:dc="http://purl.org/dc/elements/1.1/"
   xmlns:cc="http://creativecommons.org/ns#"
   xmlns:rdf="http://www.w3.org/1999/02/22-rdf-syntax-ns#"
   xmlns:svg="http://www.w3.org/2000/svg"
   xmlns="http://www.w3.org/2000/svg"
   xmlns:sodipodi="http://sodipodi.sourceforge.net/DTD/sodipodi-0.dtd"
   xmlns:inkscape="http://www.inkscape.org/namespaces/inkscape"
   version="1.1"
   width="18"
   height="18"
   id="svg4619"
   inkscape:version="0.91 r"
   sodipodi:docname="rocket-18.svg">
  <sodipodi:namedview
     pagecolor="#ffffff"
     bordercolor="#666666"
     borderopacity="1"
     objecttolerance="10"
     gridtolerance="10"
     guidetolerance="10"
     inkscape:pageopacity="0"
     inkscape:pageshadow="2"
     inkscape:window-width="1280"
     inkscape:window-height="776"
     id="namedview9"
     showgrid="false"
     inkscape:zoom="13.111111"
     inkscape:cx="-1.4872881"
     inkscape:cy="9"
     inkscape:window-x="0"
     inkscape:window-y="24"
     inkscape:window-maximized="1"
     inkscape:current-layer="svg4619" />
  <defs
     id="defs4621" />
  <metadata
     id="metadata4624">
    <rdf:RDF>
      <cc:Work
         rdf:about="">
        <dc:format>image/svg+xml</dc:format>
        <dc:type
           rdf:resource="http://purl.org/dc/dcmitype/StillImage" />
        <dc:title />
      </cc:Work>
    </rdf:RDF>
  </metadata>
  <g
     transform="translate(0,-1034.3622)"
     id="layer1">
    <path
       d="m 15,1037.3622 c -1.155098,-0.047 -3.488705,0.4888 -6,3 -2.152538,2.1525 -3,5 -3,5 0,0.7174 1.2824874,2 2,2 0,0 2.847462,-0.8474 5,-3 2.234442,-2.2344 2.679746,-4.496 3,-6 l 0,-1 z m -2.232233,3.2323 c 0.488155,0.4881 0.488155,1.2796 0,1.7677 -0.488155,0.4882 -1.279612,0.4882 -1.767767,0 -0.488155,-0.4881 -0.488155,-1.2796 0,-1.7677 0.488155,-0.4882 1.279612,-0.4882 1.767767,0 z M 5,1041.3622 l -1.5,3 2.25,0 1.25,-3 z m 7,5 -3,1.25 0,2.25 3,-1.5 z"
       inkscape:connector-curvature="0"
       id="path4497"
       style="opacity:1;color:#000000;fill:none;stroke:#000000;stroke-width:2;stroke-linecap:round;stroke-linejoin:round;stroke-miterlimit:4;stroke-opacity:1;stroke-dasharray:none;stroke-dashoffset:0;marker:none;visibility:visible;display:inline;overflow:visible;enable-background:accumulate" />
    <path
       d="m 15,1037.3622 c -1.155098,-0.047 -3.488705,0.4888 -6,3 -2.152538,2.1525 -3,5 -3,5 0,0.7174 1.2824874,2 2,2 0,0 2.847462,-0.8474 5,-3 2.234442,-2.2344 2.679746,-4.496 3,-6 l 0,-1 z m -2.232233,3.2323 c 0.488155,0.4881 0.488155,1.2796 0,1.7677 -0.488155,0.4882 -1.279612,0.4882 -1.767767,0 -0.488155,-0.4881 -0.488155,-1.2796 0,-1.7677 0.488155,-0.4882 1.279612,-0.4882 1.767767,0 z M 5,1041.3622 l -1.5,3 2.25,0 1.25,-3 z m 7,5 -3,1.25 0,2.25 3,-1.5 z"
       inkscape:connector-curvature="0"
       id="path3088-77"
       style="fill:#ffffff;fill-opacity:1;stroke:none" />
  </g>
  <rect
     width="18"
     height="18"
     x="0"
     y="0"
     id="canvas"
     style="fill:none;stroke:none;visibility:hidden" />
</svg>
